
<svg width="240" height="60" viewBox="0 0 240 60" fill="none" xmlns="http://www.w3.org/2000/svg">
  <path d="M43.4 12c-3.6 0-6.5 3-6.5 6.6v22.8c0 3.6 2.9 6.6 6.5 6.6h153.2c3.6 0 6.5-3 6.5-6.6V18.6c0-3.6-2.9-6.6-6.5-6.6H43.4zM50 20h140v20H50V20z" fill="#333"/>
  <path d="M70 25l-7 17h4l1.5-3.5h8L78 42h4l-7-17h-5zm0 10l2.5-6.5L75 35h-5zM95 25v17h4V31l6 11h4V25h-4v11l-6-11h-4zM117 25v17h4V25h-4zM138 25v17h4V32h7v-3h-7v-4h8v-3h-12zM164 25v17h4v-7h3l4 7h5l-5-8.5c2.5-1 4-3 4-5.5 0-3.5-2.5-6-6-6h-9zm4 3h5c1.5 0 2.5 1 2.5 2.5S174.5 33 173 33h-5v-5zM190 25v17h12v-3h-8v-4h7v-3h-7v-4h8v-3h-12z" fill="#333"/>
</svg>
