
<svg width="24" height="24" viewBox="0 0 24 24" fill="none" xmlns="http://www.w3.org/2000/svg">
  <path d="M17.0266 7.848C15.988 8.03651 14.9994 7.57663 14.2346 7.07877C13.7367 6.75886 13.2893 6.37497 13.0661 6.37497C12.7923 6.37497 12.3449 6.74092 11.7965 7.07877C11.0822 7.52071 10.2926 8.01857 9.32249 7.94067C8.2334 7.86277 7.23431 7.33697 6.57947 6.42132C5.23087 4.59003 5.57378 1.72383 7.28186 0C8.32347 0.978636 8.79328 2.26152 8.66578 3.47039C8.55621 4.60998 7.91931 5.63751 7.08718 6.37497C7.89138 6.98285 8.81894 7.33697 9.72856 7.39693C10.6636 7.45688 11.5661 7.14893 12.3449 6.73293C13.1493 6.28699 13.7871 5.85305 14.3684 5.85305C14.925 5.85305 15.5294 6.26506 16.244 6.68106C17.0611 7.15688 17.8405 7.5909 17.0266 7.848ZM13.0407 24C11.8005 24 11.1837 23.1423 10.2175 23.1423C9.22845 23.1423 8.4745 24 7.45748 24C5.52526 24 3.75 21.8347 3.75 18.6135C3.75 16.0433 5.56695 14.33 7.78244 14.33C8.90336 14.33 9.807 15.2316 10.5969 15.2316C11.3867 15.2316 12.4675 14.2769 13.8286 14.2769C14.2591 14.2769 16.2382 14.3009 17.5368 16.1981C17.4777 16.2401 15.6445 17.3371 15.6445 19.5444C15.6445 22.1506 17.9169 23.1063 18 23.1603C17.9759 23.2202 17.575 24.0006 16.5159 24.0006L13.0407 24Z" fill="black"/>
</svg>
