
<svg width="24" height="24" viewBox="0 0 24 24" fill="none" xmlns="http://www.w3.org/2000/svg">
  <path d="M22 5.79997C21.2483 6.12606 20.4534 6.34164 19.64 6.43997C20.4982 5.92729 21.1413 5.12075 21.45 4.16997C20.6436 4.65003 19.7608 4.98826 18.84 5.16997C18.2245 4.50254 17.405 4.05826 16.5098 3.90682C15.6147 3.75537 14.6945 3.90434 13.8938 4.33232C13.093 4.7603 12.4569 5.4458 12.0852 5.28037C11.7135 6.11493 11.6289 7.04114 11.84 7.91997C10.2094 7.8416 8.61444 7.43551 7.15865 6.7298C5.70287 6.02409 4.41885 5.03815 3.39 3.83997C2.97318 4.5984 2.8438 5.48897 3.01722 6.34054C3.19064 7.19211 3.65431 7.94652 4.32 8.45997C3.66 8.44079 3.01489 8.2572 2.44 7.91997V7.96997C2.44 8.91926 2.7814 9.83816 3.40301 10.5693C4.02461 11.3004 4.88678 11.7996 5.83 11.9799C5.22164 12.1525 4.58202 12.1764 3.96 12.0499C4.22152 12.8578 4.73442 13.565 5.42682 14.0638C6.11921 14.5625 6.95645 14.8329 7.82 14.8399C6.36153 15.9868 4.5423 16.6034 2.67 16.5999C2.28344 16.5993 1.8975 16.5804 1.51 16.5399C3.41488 17.7542 5.63207 18.4003 7.89 18.3999C9.4172 18.4145 10.9313 18.1332 12.3337 17.574C13.736 17.0147 15.001 16.1893 16.0531 15.1459C17.1051 14.1024 17.9314 12.8482 18.493 11.4529C19.0546 10.0576 19.341 8.55451 19.33 7.03997C19.33 6.87997 19.33 6.70997 19.33 6.53997C20.1282 5.95879 20.8249 5.24543 21.39 4.42997L22 5.79997Z" fill="#1DA1F2"/>
</svg>
